<svg style="max-height: 500px" xml:space="preserve" xmlns:xlink="http://www.w3.org/1999/xlink" xmlns="http://www.w3.org/2000/svg" version="1.1" viewBox="531.456 587.776 1541.12 1428.48" width="1541.12" height="1428.48">
    <g transform="matrix(1,0,0,1,-26100,0)">
        <rect style="fill:none;" height="2560" width="2560" y="0" x="26100" id="Tavola-da-disegno11"/>
        <g id="Tavola-da-disegno111">
            <g transform="matrix(1.09125,0,0,1.09125,-2498.29,-115.971)">
                <g transform="matrix(0.771272,0,0,0.771272,8453.39,234.886)">
                    <g transform="matrix(1,0,0,1,18474.4,-122.017)">
                        <path style="fill:rgb(22,150,5);" d="M5453.1,1088.08C5536.97,868.007 5736.27,704.698 5976.84,672.333C5947.04,697.523 5928.11,735.167 5928.11,777.199C5928.11,792.354 5930.57,806.939 5935.12,820.576L5536.69,1114.31C5513.85,1097.8 5485.81,1088.06 5455.5,1088.06C5454.7,1088.06 5453.9,1088.07 5453.1,1088.08Z"/>
                    </g>
                    <g transform="matrix(1,0,0,1,18474.4,-122.017)">
                        <path style="fill:rgb(22,150,5);" d="M6154.19,672.541C6393.47,705.31 6591.7,867.653 6675.76,1086.42L6672.23,1088.08C6641.63,1088.46 6613.41,1098.76 6590.62,1115.92L6194.51,823.898C6199.79,809.318 6202.67,793.592 6202.67,777.199C6202.67,735.283 6183.85,697.73 6154.19,672.541Z"/>
                    </g>
                    <g transform="matrix(1,0,0,1,18474.4,-122.017)">
                        <path style="fill:rgb(0,73,5);" d="M6715.8,1386.21C6700.08,1544.18 6628.07,1685.69 6520.14,1790.37C6510.75,1763.57 6492.33,1741 6468.54,1726.31L6715.8,1386.21Z"/>
                    </g>
                    <g transform="matrix(1,0,0,1,18474.4,-122.017)">
                        <path style="fill:rgb(0,73,5);" d="M6321.97,1922.47C6242.99,1956.31 6156.04,1975.04 6064.75,1975.04C5973.45,1975.04 5886.5,1956.31 5807.53,1922.47C5821.61,1909.82 5832.76,1893.97 5839.82,1876.06C5845.33,1862.11 5848.36,1846.9 5848.36,1831C5848.36,1800.65 5837.34,1772.86 5819.09,1751.41L5972.93,1567.79C6000.58,1580.04 6031.16,1586.85 6063.33,1586.85C6095.06,1586.85 6125.25,1580.22 6152.6,1568.28L6308.23,1754.04C6291.28,1775.11 6281.14,1801.88 6281.14,1831C6281.14,1867.3 6296.91,1899.95 6321.97,1922.47Z"/>
                    </g>
                    <g transform="matrix(1,0,0,1,18474.4,-122.017)">
                        <path style="fill:rgb(0,73,5);" d="M5609.35,1790.37C5503.03,1687.24 5431.57,1548.37 5414.44,1393.23L5657.97,1728.22C5635.62,1742.92 5618.35,1764.7 5609.35,1790.37Z"/>
                    </g>
                    <g transform="matrix(1,0,0,1,18474.4,-122.017)">
                        <path style="fill:rgb(59,118,0);" d="M5966.39,872.258C5984.76,891.383 6008.61,905.205 6035.4,911.186L6035.4,1141.51C5954.57,1151.6 5887.09,1204.92 5856.85,1277.57L5587.8,1151.36L5966.39,872.258Z"/>
                    </g>
                    <g transform="matrix(1,0,0,1,18474.4,-122.017)">
                        <path style="fill:rgb(59,118,0);" d="M5594.15,1220.78L5841.36,1336.75C5840.32,1345.46 5839.79,1354.32 5839.79,1363.31C5839.79,1432.74 5871.51,1494.81 5921.23,1535.83L5769.96,1716.39C5756.14,1711.01 5741.12,1708.06 5725.41,1708.06C5722.87,1708.06 5720.35,1708.13 5717.85,1708.28L5468.31,1365.04C5538.91,1358.57 5594.28,1299.12 5594.28,1226.84C5594.28,1224.81 5594.24,1222.79 5594.15,1220.78Z"/>
                    </g>
                    <g transform="matrix(1,0,0,1,18474.4,-122.017)">
                        <path style="fill:rgb(0,73,5);" d="M6407.41,1708.1C6406.3,1708.07 6405.19,1708.06 6404.08,1708.06C6387.13,1708.06 6370.97,1711.49 6356.28,1717.71L6204.51,1536.57C6254.76,1495.57 6286.86,1433.16 6286.86,1363.31C6286.86,1354.09 6286.3,1345 6285.22,1336.07L6535.45,1218.68C6535.29,1221.38 6535.21,1224.1 6535.21,1226.84C6535.21,1297.73 6588.48,1356.27 6657.13,1364.61L6407.41,1708.1Z"/>
                    </g>
                    <g transform="matrix(1,0,0,1,18474.4,-122.017)">
                        <path style="fill:rgb(59,118,0);" d="M6162.02,874.676L6537.32,1151.36L6269.55,1276.97C6239.74,1205.92 6174.25,1153.47 6095.56,1142.09L6095.56,911.147C6121.14,905.402 6144.03,892.508 6162.02,874.676Z"/>
                    </g>
                    <g transform="matrix(-1.55295,0,0,1.55295,45893.4,-614.725)">
                        <g transform="matrix(0.379638,0,0,0.379638,13524.1,971.04)">
                            <path style="fill:rgb(81,81,81);fill-rule:nonzero;" d="M906.809,694.648C906.809,694.648 935.529,637.012 923.641,541.585C905.17,533.461 841.198,513.624 841.198,513.624L782.077,654.811L820.409,742.956L906.809,694.648Z"/>
                        </g>
                        <g transform="matrix(0.379638,0,0,0.379638,13524.1,971.04)">
                            <path style="fill:rgb(35,35,35);fill-rule:nonzero;" d="M581.96,787.215C581.96,787.215 634.867,719.867 676.921,671.957C655.363,642.07 596.679,543.514 596.679,543.514C596.679,543.514 472.153,572.908 457.532,574.433C453.787,586.62 442.909,692.402 447.937,726.318C455.975,729.276 581.96,787.215 581.96,787.215Z"/>
                        </g>
                        <g transform="matrix(0.379638,0,0,0.379638,13524.1,971.04)">
                            <path style="fill:rgb(81,81,81);fill-rule:nonzero;" d="M363.674,500.674C363.674,500.674 382.094,428.347 432.614,379.461C402.934,358.033 392.93,352.481 392.93,352.481C392.93,352.481 289.538,429.454 283.553,535.07C304.184,521.111 363.674,500.674 363.674,500.674Z"/>
                        </g>
                        <g transform="matrix(0.379638,0,0,0.379638,13524.1,971.04)">
                            <path style="fill:rgb(35,35,35);fill-rule:nonzero;" d="M401.548,849.792C401.548,849.792 309.054,804.896 278.531,668.472C298.293,695.956 355.849,737.562 373.031,754.637C375.864,772.22 374.839,821.173 401.548,849.792Z"/>
                        </g>
                        <g transform="matrix(0.379638,0,0,0.379638,13524.1,971.04)">
                            <path style="fill:rgb(81,81,81);fill-rule:nonzero;" d="M785.196,410.729C785.196,410.729 790.284,338.607 778.743,316.353C762.598,303.257 678.338,271.503 648.765,268.757C615.777,283.994 573.512,310.368 568.908,319.526C573.058,320.313 632.176,378.825 653.805,415.891C671.979,410.741 746.989,400.613 785.196,410.729Z"/>
                        </g>
                        <g transform="matrix(0.379638,0,0,0.379638,13524.1,971.04)">
                            <path style="fill:rgb(35,35,35);fill-rule:nonzero;" d="M744.006,882.439L748.584,845.352C748.584,845.352 666.565,864.43 613.15,860.275C607.565,859.543 576.578,903.113 539.849,912.503C538.087,915.112 654.624,936.054 744.006,882.439Z"/>
                        </g>
                    </g>
                </g>
                <g transform="matrix(20.9434,0,0,20.9434,12072.6,-21792)">
                    <path style="fill:rgb(0,73,5);fill-rule:nonzero;" d="M701.921,1131.17C699.865,1131.1 698.837,1130.22 698.837,1128.54C698.837,1128.47 698.841,1128.4 698.849,1128.33L701.009,1128.33L701.009,1128.58C701.009,1129.14 701.325,1129.42 701.957,1129.42L705.197,1129.42C705.493,1129.42 705.711,1129.35 705.851,1129.19C705.991,1129.04 706.061,1128.84 706.061,1128.6C706.061,1128.05 705.765,1127.78 705.173,1127.78L701.801,1127.78C699.961,1127.78 699.033,1126.91 699.017,1125.17C699.009,1124.34 699.045,1123.53 699.125,1122.73C700.277,1122.69 701.539,1122.67 702.911,1122.67C704.283,1122.66 705.073,1122.66 705.281,1122.68C706.193,1122.72 706.851,1122.95 707.255,1123.38C707.659,1123.8 707.881,1124.32 707.921,1124.92C707.937,1125.05 707.937,1125.2 707.921,1125.38L705.785,1125.38L705.785,1125.22C705.785,1124.67 705.481,1124.39 704.873,1124.39L701.165,1124.39L701.165,1125.06C701.165,1125.67 701.537,1125.98 702.281,1125.98L705.521,1125.98C705.961,1125.98 706.351,1126.04 706.691,1126.16C707.031,1126.28 707.299,1126.43 707.495,1126.61C707.691,1126.79 707.849,1127 707.969,1127.25C708.089,1127.49 708.169,1127.72 708.209,1127.93C708.249,1128.15 708.265,1128.37 708.257,1128.58C708.233,1129.25 707.995,1129.84 707.543,1130.35C707.091,1130.86 706.409,1131.13 705.497,1131.17C705.201,1131.19 704.613,1131.2 703.733,1131.2C702.853,1131.2 702.249,1131.19 701.921,1131.17Z"/>
                    <path style="fill:rgb(0,73,5);fill-rule:nonzero;" d="M711.317,1131.13C710.677,1131.11 710.193,1130.93 709.865,1130.6C709.537,1130.26 709.357,1129.84 709.325,1129.32C709.269,1128.47 709.269,1127.07 709.325,1125.13C711.253,1125.08 713.101,1125.08 714.869,1125.13C715.517,1125.14 716.011,1125.32 716.351,1125.66C716.691,1126 716.869,1126.43 716.885,1126.95C716.933,1127.75 716.933,1128.53 716.885,1129.28C716.861,1129.76 716.681,1130.18 716.345,1130.55C716.009,1130.92 715.517,1131.11 714.869,1131.13C713.693,1131.17 712.509,1131.17 711.317,1131.13ZM712.049,1129.64L714.149,1129.64C714.597,1129.64 714.821,1129.39 714.821,1128.91L714.821,1127.35C714.821,1126.86 714.597,1126.62 714.149,1126.62L711.365,1126.62L711.365,1128.91C711.365,1129.39 711.593,1129.64 712.049,1129.64Z"/>
                    <path style="fill:rgb(0,73,5);fill-rule:nonzero;" d="M719.873,1131.14C719.265,1131.12 718.803,1130.95 718.487,1130.61C718.171,1130.28 717.997,1129.85 717.965,1129.34C717.909,1128.48 717.909,1127.07 717.965,1125.13C720.653,1125.08 722.489,1125.08 723.473,1125.13C724.601,1125.17 725.173,1125.76 725.189,1126.89C725.189,1127.16 725.185,1127.39 725.177,1127.56L723.185,1127.56L723.185,1127.19C723.185,1126.78 722.985,1126.58 722.585,1126.58L720.017,1126.58L720.017,1128.92C720.017,1129.41 720.245,1129.65 720.701,1129.65L722.585,1129.65C722.793,1129.65 722.945,1129.59 723.041,1129.48C723.137,1129.36 723.185,1129.21 723.185,1129.04L723.185,1128.65L725.213,1128.65L725.213,1129.45C725.213,1129.95 725.045,1130.36 724.709,1130.66C724.373,1130.96 723.905,1131.12 723.305,1131.14C722.153,1131.16 721.009,1131.16 719.873,1131.14Z"/>
                    <path style="fill:rgb(0,73,5);fill-rule:nonzero;" d="M728.165,1131.14C727.557,1131.12 727.095,1130.95 726.779,1130.61C726.463,1130.28 726.289,1129.85 726.257,1129.34C726.201,1128.48 726.201,1127.07 726.257,1125.13C728.945,1125.08 730.781,1125.08 731.765,1125.13C732.893,1125.17 733.465,1125.76 733.481,1126.89C733.481,1127.16 733.477,1127.39 733.469,1127.56L731.477,1127.56L731.477,1127.19C731.477,1126.78 731.277,1126.58 730.877,1126.58L728.309,1126.58L728.309,1128.92C728.309,1129.41 728.537,1129.65 728.993,1129.65L730.877,1129.65C731.085,1129.65 731.237,1129.59 731.333,1129.48C731.429,1129.36 731.477,1129.21 731.477,1129.04L731.477,1128.65L733.505,1128.65L733.505,1129.45C733.505,1129.95 733.337,1130.36 733.001,1130.66C732.665,1130.96 732.197,1131.12 731.597,1131.14C730.445,1131.16 729.301,1131.16 728.165,1131.14Z"/>
                    <path style="fill:rgb(0,73,5);fill-rule:nonzero;" d="M736.913,1131.13C736.121,1131.13 735.531,1130.96 735.143,1130.63C734.755,1130.31 734.549,1129.87 734.525,1129.32C734.485,1128.51 734.485,1127.72 734.525,1126.96C734.549,1126.49 734.733,1126.07 735.077,1125.68C735.421,1125.31 735.917,1125.12 736.565,1125.12L741.893,1125.12L741.893,1126.78C741.893,1127.45 741.763,1127.94 741.503,1128.24C741.243,1128.54 740.733,1128.69 739.973,1128.69L736.565,1128.69L736.565,1128.88C736.565,1129.37 736.813,1129.62 737.309,1129.62L741.845,1129.62L741.845,1131.09C741.381,1131.12 740.685,1131.13 739.757,1131.13L736.913,1131.13ZM739.961,1126.52L737.381,1126.52C736.837,1126.52 736.565,1126.76 736.565,1127.23L736.565,1128.01L736.601,1128.01C736.753,1127.65 737.021,1127.48 737.405,1127.48L739.541,1127.48C739.821,1127.48 739.961,1127.37 739.961,1127.14L739.961,1126.52Z"/>
                    <path style="fill:rgb(0,73,5);fill-rule:nonzero;" d="M742.961,1131.13C742.937,1130.46 742.925,1129.46 742.925,1128.13C742.925,1126.79 742.937,1125.79 742.961,1125.13L744.809,1125.13L744.977,1126.35L745.013,1126.35C745.157,1125.56 745.593,1125.15 746.321,1125.13C747.145,1125.1 748.041,1125.1 749.009,1125.13L749.009,1126.63C748.545,1126.67 747.933,1126.69 747.173,1126.69L746.009,1126.69C745.345,1126.69 745.013,1127.03 745.013,1127.71L745.013,1131.13L742.961,1131.13Z"/>
                    <path style="fill:rgb(0,73,5);fill-rule:nonzero;" d="M748.541,1131.13L753.329,1122.73L755.333,1122.73L760.121,1131.13L757.625,1131.13L756.833,1129.64L751.829,1129.64L751.037,1131.13L748.541,1131.13ZM755.933,1127.83L754.409,1124.96L754.265,1124.96L752.501,1128.24L752.537,1128.26C752.769,1127.97 753.081,1127.83 753.473,1127.83L755.933,1127.83Z"/>
                    <path style="fill:rgb(0,73,5);fill-rule:nonzero;" d="M760.805,1131.13C760.781,1130.19 760.769,1128.79 760.769,1126.93C760.769,1125.06 760.781,1123.66 760.805,1122.73L762.917,1122.73C762.941,1123.66 762.953,1125.06 762.953,1126.93C762.953,1128.79 762.941,1130.19 762.917,1131.13L760.805,1131.13Z"/>
                </g>
            </g>
        </g>
    </g>
</svg>